<?xml version="1.0" encoding="utf-8"?>
<!-- Generator: Adobe Illustrator 15.1.0, SVG Export Plug-In . SVG Version: 6.00 Build 0)  -->
<!DOCTYPE svg PUBLIC "-//W3C//DTD SVG 1.1//EN" "http://www.w3.org/Graphics/SVG/1.1/DTD/svg11.dtd">
<svg version="1.1" xmlns="http://www.w3.org/2000/svg" xmlns:xlink="http://www.w3.org/1999/xlink" x="0px" y="0px" width="248px"
	 height="236px" viewBox="10 20 248 236" enable-background="new 10 20 248 236" xml:space="preserve">
<g id="Layer_1">
	<g>
		<path  d="M129.734,59.529c1.448,0,2.767,0.302,3.873,1.033c6.378,5.626,6.353,17.121,7.355,25.644
			c-0.291,4.046,0.1,5.424,0.941,5.424c1.666,0,5.095-5.4,8.498-6.196c1.497-0.352,2.884-0.511,4.189-0.511
			c7.765,0,12.619,5.649,20.036,10.136c12.423,7.487,26.089,11.631,40.098,15.095c0.725,0.178,1.557,0.352,2.457,0.527
			c6.66,1.295,17.251,2.786,18.968,9.052c1.928,7.037-6.576,23.044-9.351,29.538c-3.818,8.944-8.456,17.528-13.406,25.894
			c-11.576,19.563-32.399,39.671-53.486,39.671c-1.968,0-3.937-0.175-5.901-0.542c-19.608-3.66-27.992-15.389-27.992-33.771
			c-5.629,6.726-11.893,9.461-18.304,9.461c-20.626,0-42.747-28.344-49.889-43.363c-9.866-20.745-13.567-37.237-14.173-59.905
			c-0.233-8.672,5.405-12.397,13.368-12.679c8.959-0.315,17.68-1.194,26.626-2.438c9.278-1.291,18.544-2.905,27.517-5.631
			C115.71,64.585,123.807,59.529,129.734,59.529 M129.735,52.594L129.735,52.594c-5.441,0-11.229,2.637-15.88,4.756
			c-1.781,0.812-3.624,1.651-4.713,1.982c-9.245,2.808-18.995,4.36-26.457,5.397c-9.616,1.337-17.851,2.092-25.915,2.376
			c-12.688,0.448-20.373,8.033-20.056,19.795c0.642,24.009,4.803,41.587,14.843,62.697c7.049,14.823,30.975,47.319,56.151,47.319
			c4.616,0,8.947-1.048,12.963-3.128c3.876,14.739,14.767,24.092,32.06,27.319c2.344,0.438,4.758,0.66,7.174,0.66
			c25.07,0,47.696-23.204,59.454-43.074c5.919-10.001,10.309-18.485,13.816-26.702c0.442-1.035,1.072-2.397,1.803-3.975
			c5.536-11.961,9.949-22.484,7.858-30.118c-2.729-9.96-14.781-12.227-22.756-13.727c-0.545-0.103-1.072-0.202-1.577-0.3
			c-0.917-0.179-1.594-0.324-2.124-0.454c-12.719-3.145-26.152-7.056-38.175-14.301c-1.83-1.107-3.581-2.364-5.274-3.58
			c-4.929-3.54-10.515-7.551-18.341-7.551c-1.87,0-3.813,0.234-5.776,0.696c-0.546,0.127-1.073,0.295-1.58,0.494
			c-0.81-8.223-2.214-17.794-9.04-23.815c-0.24-0.212-0.495-0.407-0.763-0.584C135.241,53.329,132.651,52.595,129.735,52.594
			L129.735,52.594z"/>
	</g>

		<path fill-rule="evenodd" clip-rule="evenodd"  stroke="#505050" stroke-width="2.3116" stroke-linecap="round" stroke-linejoin="round" stroke-miterlimit="10" d="
		M72.58,109.009c8.014-2.054,17.3-0.324,16.873,5.651c-0.516,7.189-7.998,6.608-12.477,3.994c-4.199-2.451-15.5-0.669-15.59,0.171
		C61.926,113.782,66.938,110.457,72.58,109.009z"/>

		<path fill-rule="evenodd" clip-rule="evenodd" stroke="#505050" stroke-width="2.3116" stroke-linecap="round" stroke-linejoin="round" stroke-miterlimit="10" d="
		M113.587,147.786c-13.651-0.312-19.64,8.584-29.75,12.533c-2.229-19.47,25.917-32.203,41.365-19.101
		c0.823,0.322,1.179,1.029,0.88,2.27c-0.133,1.446-0.274,2.897-0.41,4.338c-0.036,0.36-0.072,0.723-0.102,1.086
		c-3.267-0.309-6.536-0.613-9.803-0.919C115.049,147.925,114.316,147.858,113.587,147.786z"/>

		<path fill-rule="evenodd" clip-rule="evenodd"  stroke="#505050" stroke-width="2.3116" stroke-linecap="round" stroke-linejoin="round" stroke-miterlimit="10" d="
		M128.044,106.252c-4.593,1.124-8.647,4.577-9.35,5.115c-2.846,2.176-10.396,5.807-11.95,0.622
		c-0.857-2.863,0.446-6.082,2.554-7.994c5.208-4.728,12.215-6.401,18.95-4.57c3.821,1.036,7.192,3.37,7.776,7.356
		C135.727,105.108,130.417,105.668,128.044,106.252z"/>

		<path fill-rule="evenodd" clip-rule="evenodd"  stroke="#505050" stroke-width="2.3116" stroke-linecap="round" stroke-linejoin="round" stroke-miterlimit="10" d="
		M188.979,181.372c-10.658,20.039-53.605,7.951-46.594-18.589C151.889,174.38,170.072,183.361,188.979,181.372z"/>

		<path fill-rule="evenodd" clip-rule="evenodd"  stroke="#505050" stroke-width="2.3116" stroke-linecap="round" stroke-linejoin="round" stroke-miterlimit="10" d="
		M162.984,125.677c2.448,1.041,13.126,15.186,2.71,17.156c-7.368,1.394-8.366-6.719-13.528-9.742
		c-3.978-2.327-12.556-4.383-12.556-4.383S150.53,120.383,162.984,125.677z"/>

		<path fill-rule="evenodd" clip-rule="evenodd"  stroke="#505050" stroke-width="2.3116" stroke-linecap="round" stroke-linejoin="round" stroke-miterlimit="10" d="
		M204.294,153.458c-5.513-0.748-12.411-0.518-14.255-0.691c-1.086-0.102-2.181-0.203-3.269-0.307
		c-7.287-0.683-1.89-8.396,0.873-10.036c9.267-5.499,22.809,5.203,23.975,14.55C211.372,154.996,208.175,153.982,204.294,153.458z"
		/>
</g>
</svg>
